<svg width="109" height="121" viewBox="0 0 109 121" fill="none" xmlns="http://www.w3.org/2000/svg">
<path d="M59.6199 90.0551C62.1819 90.4661 71.8614 89.9864 71.8614 89.9864L30.8417 67.959C30.8417 67.959 8.59207 72.3224 8.97936 73.5823C9.36666 74.8422 57.0579 89.6442 59.6199 90.0551Z" fill="black"/>
<path d="M29.8542 23.5107V48.9568" stroke="black" stroke-width="0.337778" stroke-miterlimit="10"/>
<path d="M30.5544 23.2998V48.7459" stroke="#AA00FF" stroke-width="0.337778" stroke-miterlimit="10"/>
<path d="M30.9052 26.876C30.835 27.1563 30.9052 47.0645 30.9052 47.0645" stroke="white" stroke-width="0.337778" stroke-miterlimit="10"/>
<path d="M31.5368 26.666C31.4666 26.9601 31.5368 47.8358 31.5368 47.8358" stroke="black" stroke-width="0.337778" stroke-miterlimit="10"/>
<path d="M4.62032 47.9857C3.48705 48.2893 2.503 48.9055 1.75048 49.7249C0.93494 50.6138 0.390815 51.7419 0.22359 52.9729C0.184999 53.2521 0.166991 53.5376 0.168277 53.827C0.240313 64.3481 0.401106 77.9486 0.362515 94.2826C0.354797 97.1525 2.25216 99.6802 5.01009 100.476L14.6976 103.273L14.9111 101.882V101.881C14.9201 85.1483 14.7786 59.5577 14.7117 49.8548C14.7104 49.6168 14.722 49.3827 14.749 49.1512C14.8918 47.8558 15.4501 46.666 16.3068 45.7398C16.95 45.0413 17.7642 44.492 18.6955 44.1602L4.62032 47.9857ZM11.0984 94.5348L3.44074 92.483V61.5953L11.0984 63.6483V94.5348Z" fill="#AA00FF"/>
<path d="M3.44092 61.5957L11.0985 63.6487V94.5352L3.44092 92.4835V61.5957Z" fill="#B2FF14"/>
<path d="M103.501 33.7147L80.7453 28.312C79.7072 28.0664 78.6241 28.0818 77.5951 28.3584L23.9994 42.7191L19.1641 44.0145C19.0084 44.0569 18.8566 44.1032 18.7074 44.1573C18.7048 44.1585 18.7035 44.1585 18.701 44.1598C18.6997 44.1598 18.6971 44.1611 18.6958 44.1611C17.7645 44.493 16.9503 45.0423 16.3071 45.7408C15.4504 46.6669 14.8921 47.8568 14.7493 49.1521C14.7223 49.3837 14.7107 49.6178 14.712 49.8558C14.7789 59.5587 14.9204 85.1493 14.9114 101.882V101.883C14.9114 103.294 14.9088 104.64 14.9062 105.91C14.905 106.293 14.9384 106.671 15.0027 107.039C15.4208 109.424 17.1638 111.413 19.5538 112.103L40.9316 118.277V118.275L43.4696 114.85L45.8596 111.625L49.0665 107.298C49.0678 107.296 49.0677 107.295 49.0677 107.294L50.0621 105.951L54.0922 100.511L47.6116 102.247C46.1941 102.627 44.7945 102.003 44.0729 100.879C44.5488 100.979 45.237 101.049 45.7477 100.912L55.7876 98.2224L57.7416 95.5841L61.4128 90.6291V90.6278L61.5466 90.4477V90.4464L68.7617 80.7075L72.1577 76.1243V76.123L72.1808 76.0921L82.2529 62.4954L82.9025 61.6181L86.5596 56.6811L87.1114 55.9363L93.4802 47.3397L97.0922 42.4644V42.4631L103.563 33.7301V33.7289L103.501 33.7147ZM79.3548 35.6082L86.5596 37.5377V41.3993L57.7416 49.1213V45.2597L50.5368 43.3301L79.3548 35.6082Z" fill="#AA00FF"/>
<path d="M103.563 33.7297C103.542 33.7245 103.522 33.7194 103.501 33.7142C102.586 33.5046 101.602 33.5071 100.613 33.7721L86.5598 37.5373V41.3989L57.7418 49.1208V45.2592L40.6128 49.8489C39.5181 50.1422 38.5623 50.7262 37.8214 51.5044C36.948 52.4203 36.3691 53.605 36.2083 54.9016C36.1749 55.1602 36.1594 55.4239 36.1607 55.6902C36.234 66.4672 36.4026 93.4547 36.3511 109.009C36.3472 110.087 36.3434 111.111 36.337 112.071C36.3202 115.065 38.3153 117.491 40.9318 118.275C42.0239 118.604 43.2253 118.645 44.4332 118.321L57.4896 114.822L103.721 102.435C106.348 101.731 108.173 99.3513 108.173 96.6333V39.5735C108.173 36.6715 106.15 34.3497 103.563 33.7297ZM54.0924 100.51L47.6118 102.247C46.1942 102.626 44.7947 102.003 44.073 100.878C44.549 100.979 45.2372 101.048 45.7479 100.912L55.7878 98.2219L72.181 93.8291L96.7219 87.2533C98.1279 86.8764 99.1055 85.6016 99.1055 84.1467V48.1869C99.1055 47.545 98.8855 46.9083 98.5678 46.4118C99.9211 46.7668 100.969 47.994 100.969 49.5234V85.482C100.969 86.9381 99.9918 88.2116 98.5858 88.5885L54.0924 100.51Z" fill="#F2D1FC"/>
<path d="M100.969 49.5238V85.4823C100.969 86.9385 99.9915 88.2119 98.5855 88.5888L54.0921 100.511L47.6115 102.247C46.1939 102.627 44.7944 102.003 44.0728 100.879C44.5487 100.979 45.2369 101.048 45.7476 100.912L55.7875 98.2223L72.1807 93.8294L96.7216 87.2536C98.1276 86.8767 99.1052 85.6019 99.1052 84.1471V48.1873C99.1052 47.5454 98.8853 46.9086 98.5675 46.4121C99.9208 46.7671 100.969 47.9943 100.969 49.5238Z" fill="#231F20"/>
<path d="M104.648 44.2386V96.0905C104.648 97.5466 103.671 98.8201 102.265 99.197L57.7712 111.119L43.5015 114.842C42.0839 115.221 41.0703 114.597 40.3486 113.473C40.8246 113.573 41.1269 113.643 41.6376 113.506L59.4666 108.83L75.8598 104.438L100.401 97.8618C101.807 97.4849 102.784 96.2101 102.784 94.7553V42.9021C102.784 42.2602 102.564 41.6235 102.247 41.127C103.6 41.482 104.648 42.7092 104.648 44.2386Z" fill="#231F20"/>
<path d="M103.406 98.7783L57.5566 111.076L43.2869 114.799C41.8694 115.178 41.113 114.812 40.3914 113.687C40.8673 113.788 41.1696 113.857 41.6803 113.721L59.5093 109.045L75.9025 104.652L100.443 98.0762L103.406 98.7783Z" fill="#AA00FF"/>
<path d="M98.5856 88.5884L61.5492 98.5995L47.2795 102.322C45.862 102.702 44.8483 102.078 44.1267 100.954C44.6027 101.054 44.9049 101.123 45.4156 100.987L63.2446 96.3111L79.6378 91.9182L95.366 87.6289L98.5856 88.5883V88.5884Z" fill="#AA00FF"/>
<path d="M99.1053 48.1868V84.1466C99.1053 85.6015 98.1277 86.8762 96.7217 87.2531L72.1808 93.8289L55.7876 98.2218L45.7477 100.912C45.237 101.048 44.5488 100.978 44.0729 100.878C43.7513 100.38 43.5635 99.786 43.5635 99.1377C43.5648 98.016 43.5635 96.767 43.5609 95.4214C43.5558 91.9959 43.5416 87.949 43.5236 83.8122C43.5043 79.8734 43.4824 75.8522 43.4593 72.2093C43.4374 68.7529 43.4143 65.6374 43.3937 63.2538C43.3808 61.7873 44.361 60.4997 45.7773 60.1202L57.7416 56.9147L86.5596 49.1927L93.4802 47.3391L96.9211 46.4168C97.4871 46.265 98.0493 46.274 98.5677 46.4116C98.8854 46.9082 99.1053 47.5449 99.1053 48.1868Z" fill="#B2FF14"/>
<path d="M44.0732 100.878H44.0718" stroke="#231F20" stroke-width="0.337778" stroke-linecap="round" stroke-linejoin="round"/>
<path d="M98.5677 46.4131C98.5573 46.3961 98.5456 46.3792 98.5352 46.3623" stroke="#231F20" stroke-width="0.337778" stroke-linecap="round" stroke-linejoin="round"/>
<path d="M86.5597 37.5379L57.7417 45.2599L50.5369 43.3303L79.3549 35.6084L86.5597 37.5379Z" fill="#D2FD78"/>
<path d="M86.5592 37.5371V41.3987L57.7412 49.1207V45.259L86.5592 37.5371Z" fill="#B2FF14"/>
<path d="M11.0985 90.6751V94.5354L3.44092 92.4837V88.6221L11.0985 90.6751Z" fill="#231F20"/>
<path d="M50.5369 108.893C51.3499 108.893 52.0089 108.217 52.0089 107.382C52.0089 106.547 51.3499 105.87 50.5369 105.87C49.724 105.87 49.0649 106.547 49.0649 107.382C49.0649 108.217 49.724 108.893 50.5369 108.893Z" fill="#FB5A3D"/>
<path d="M100.625 41.0732L41.4209 56.7725" stroke="white" stroke-width="0.337778" stroke-linecap="round" stroke-linejoin="round"/>
<path d="M97.1181 45.8643L44.8433 59.767" stroke="white" stroke-width="0.337778" stroke-linecap="round" stroke-linejoin="round"/>
<path d="M99.5138 88.8975L47.239 102.8" stroke="white" stroke-width="0.337778" stroke-linecap="round" stroke-linejoin="round"/>
<path d="M103.62 99.4629L44.4155 115.162" stroke="white" stroke-width="0.337778" stroke-linecap="round" stroke-linejoin="round"/>
<path d="M85.8535 38.3926L58.5908 45.636" stroke="white" stroke-width="0.337778" stroke-linecap="round" stroke-linejoin="round"/>
<path d="M85.8535 42.0996L58.5908 49.343" stroke="white" stroke-width="0.337778" stroke-linecap="round" stroke-linejoin="round"/>
<path d="M78.1538 35.2559L50.8911 42.4993" stroke="white" stroke-width="0.337778" stroke-linecap="round" stroke-linejoin="round"/>
<path d="M28.3337 53.7783V97.5385" stroke="#F2D1FC" stroke-width="0.337778" stroke-linecap="round" stroke-linejoin="round"/>
<path d="M21.1475 51.5537V95.3139" stroke="#F2D1FC" stroke-width="0.337778" stroke-linecap="round" stroke-linejoin="round"/>
<path d="M2.79639 61.3066V92.02" stroke="#F2D1FC" stroke-width="0.337778" stroke-linecap="round" stroke-linejoin="round"/>
<path d="M21.5466 99.6201L28.7331 101.588" stroke="#F2D1FC" stroke-width="0.337778" stroke-linecap="round" stroke-linejoin="round"/>
<path d="M21.5466 101.559L28.7331 103.526" stroke="#F2D1FC" stroke-width="0.337778" stroke-linecap="round" stroke-linejoin="round"/>
<path d="M21.5466 103.555L28.7331 105.522" stroke="#F2D1FC" stroke-width="0.337778" stroke-linecap="round" stroke-linejoin="round"/>
<path d="M21.5466 105.38L28.7331 107.348" stroke="#F2D1FC" stroke-width="0.337778" stroke-linecap="round" stroke-linejoin="round"/>
<path d="M21.5466 107.405L28.7331 109.373" stroke="#F2D1FC" stroke-width="0.337778" stroke-linecap="round" stroke-linejoin="round"/>
<path d="M21.5466 109.259L28.7331 111.227" stroke="#F2D1FC" stroke-width="0.337778" stroke-linecap="round" stroke-linejoin="round"/>
<path d="M79.3545 35.6084V36.2401L86.4237 38.2077L86.5593 37.5379L79.3545 35.6084Z" fill="black" stroke="black" stroke-width="0.337778" stroke-linecap="round" stroke-linejoin="round"/>
<path d="M13.7899 53.7779L1.25642 50.2275L0.743164 51.0403L13.191 54.5052L13.7899 53.7779Z" fill="#FB5A3D"/>
<path d="M14.731 50.7695L11.48 52.1954L13.4191 52.8799C13.4191 52.8799 12.8488 54.7621 12.9629 56.3591C13.0623 57.7503 13.2686 91.0869 13.3202 99.6531C13.3279 100.934 13.8207 102.163 14.6994 103.095L14.9449 103.356L14.731 50.7697V50.7695Z" fill="#231F20"/>
<path d="M37.2739 52.2381L15.843 46.335L15.3296 47.1478L36.675 52.9653L37.2739 52.2381Z" fill="#FB5A3D"/>
<path d="M14.6982 103.274L5.00974 100.477C2.25194 99.6807 0.355221 97.1535 0.362296 94.2831C0.401915 77.9496 0.240736 64.3492 0.169087 53.8274C0.150435 51.094 1.98 48.6937 4.62023 47.9862L23.9988 42.7188" stroke="#231F20" stroke-width="0.337778" stroke-linecap="round" stroke-linejoin="round"/>
<path d="M40.9314 118.276L19.5529 112.103C16.7952 111.307 14.8984 108.78 14.9055 105.91C14.9451 89.576 14.7839 60.3773 14.7123 49.8555C14.6936 47.1222 16.5232 44.7219 19.1634 44.0144L77.5943 28.3579C78.6243 28.0818 79.7069 28.0663 80.7443 28.3126L103.562 33.7286" stroke="#231F20" stroke-width="0.337778" stroke-linecap="round" stroke-linejoin="round"/>
<path d="M57.7417 45.2592L40.6124 49.8494C37.9721 50.5569 36.1426 52.9573 36.1613 55.6906C36.2397 67.2145 36.4256 97.2752 36.3375 112.07C36.3122 116.315 40.3333 119.419 44.4338 118.321L103.722 102.435C106.347 101.731 108.173 99.3518 108.173 96.6336V39.5735C108.173 35.6245 104.427 32.7503 100.613 33.7724L86.2454 37.6222" stroke="#231F20" stroke-width="0.337778" stroke-linecap="round" stroke-linejoin="round"/>
<path d="M42.7558 114.942C42.0176 114.942 41.2881 114.634 40.7545 114.097C40.3793 113.72 39.9331 113.065 39.939 112.092C40.0267 97.3719 39.8451 71.7473 39.7628 59.6854C39.7553 58.5921 40.488 57.631 41.5445 57.3478L101.545 41.2708C101.756 41.2144 101.969 41.1855 102.179 41.1855C103.329 41.1855 104.571 42.1059 104.571 43.5928V96.6333C104.571 97.7193 103.838 98.6742 102.789 98.9554L43.5014 114.841C43.2536 114.908 43.0028 114.942 42.7559 114.942L42.7558 114.942Z" stroke="#231F20" stroke-width="0.337778" stroke-linecap="round" stroke-linejoin="round"/>
<path d="M43.5637 99.1381C43.5716 89.859 43.4665 71.8242 43.3937 63.2538C43.3812 61.7881 44.3614 60.5003 45.7771 60.121L96.921 46.417C98.9634 45.8697 100.969 47.4088 100.969 49.5233V85.4826C100.969 86.9381 99.9915 88.2122 98.5855 88.5889L47.6119 102.247C45.5681 102.795 43.5619 101.254 43.5637 99.1379V99.1381Z" stroke="#231F20" stroke-width="0.337778" stroke-linecap="round" stroke-linejoin="round"/>
<path d="M98.5715 46.4102C98.9067 46.9141 99.1049 47.5219 99.1049 48.1867V84.146C99.1049 85.6015 98.1273 86.8757 96.7213 87.2523L45.7477 100.911C45.2367 101.047 44.7281 101.054 44.2527 100.953" stroke="#231F20" stroke-width="0.337778" stroke-linecap="round" stroke-linejoin="round"/>
<path d="M37.8219 51.505L16.3074 45.7402" stroke="#231F20" stroke-width="0.337778" stroke-linecap="round" stroke-linejoin="round"/>
<path d="M36.2267 54.9065L14.7122 49.1416" stroke="#231F20" stroke-width="0.337778" stroke-linecap="round" stroke-linejoin="round"/>
<path d="M49.2368 10.5653C53.4614 18.1966 51.6232 26.5101 45.131 29.1339C38.6389 31.7577 29.9513 27.6981 25.7267 20.0666C21.5021 12.4353 23.3402 4.12186 29.8324 1.49806C36.3245 -1.12574 45.0121 2.93381 49.2368 10.5653Z" fill="#CF70FF" stroke="black" stroke-width="0.337778" stroke-miterlimit="10"/>
<path d="M45.1953 12.3298C48.2673 17.879 46.9306 23.9243 42.2098 25.8322C37.489 27.7402 31.1716 24.7881 28.0996 19.2389C25.0277 13.6896 26.3643 7.64436 31.0851 5.73642C35.806 3.82849 42.1234 6.78051 45.1953 12.3298Z" stroke="black" stroke-width="0.337778" stroke-miterlimit="10"/>
<path d="M45.8091 12.3271C48.9999 18.0379 47.5317 24.303 42.5295 26.321C37.5273 28.3389 30.8854 25.3454 27.6946 19.6347" stroke="#F2D1FC" stroke-width="0.337778" stroke-linecap="round" stroke-linejoin="round"/>
<path d="M41.8854 14.8613C43.6439 17.9196 42.702 21.3491 39.7819 22.5211C36.8617 23.6931 33.0688 22.164 31.3103 19.1057" stroke="#F2D1FC" stroke-width="0.337778" stroke-linecap="round" stroke-linejoin="round"/>
<path d="M41.2045 14.2097C43.0017 17.4564 42.2197 20.9934 39.4576 22.1096C36.6955 23.2257 32.9994 21.4987 31.2021 18.252C29.4048 15.0053 30.1869 11.4683 32.949 10.3521C35.7111 9.23592 39.4072 10.963 41.2045 14.2097Z" stroke="black" stroke-width="0.337778" stroke-miterlimit="10"/>
<path d="M37.2834 15.5633C37.6877 16.2937 37.5119 17.0895 36.8904 17.3406C36.269 17.5916 35.4374 17.2031 35.0331 16.4727C34.6288 15.7423 34.8046 14.9465 35.426 14.6955C36.0474 14.4444 36.879 14.8329 37.2834 15.5633Z" fill="black"/>
<path d="M36.3455 16.1502L41.2058 11.29" stroke="black" stroke-width="0.337778" stroke-miterlimit="10"/>
<path d="M37.0337 15.7926L41.3955 11.5" stroke="#F2D1FC" stroke-width="0.337778" stroke-miterlimit="10"/>
<path d="M35.3405 15.6123C35.2003 15.4721 30.3402 13.556 26.5081 3.46191" stroke="black" stroke-width="0.337778" stroke-miterlimit="10"/>
<path d="M36.2434 16.9277C36.2434 16.9277 35.6675 22.7156 37.4435 29.4917" stroke="black" stroke-width="0.337778" stroke-miterlimit="10"/>
<path d="M36.9165 15.814C36.9165 15.814 43.0044 16.0798 49.5469 11.5" stroke="black" stroke-width="0.337778" stroke-miterlimit="10"/>
<path d="M41.3606 12.1547C41.937 12.1547 42.4042 11.6874 42.4042 11.111C42.4042 10.5346 41.937 10.0674 41.3606 10.0674C40.7842 10.0674 40.3169 10.5346 40.3169 11.111C40.3169 11.6874 40.7842 12.1547 41.3606 12.1547Z" fill="black"/>
<path d="M41.6259 11.9013C41.9611 11.9013 42.2328 11.6296 42.2328 11.2944C42.2328 10.9592 41.9611 10.6875 41.6259 10.6875C41.2908 10.6875 41.019 10.9592 41.019 11.2944C41.019 11.6296 41.2908 11.9013 41.6259 11.9013Z" fill="#F2D1FC"/>
<path d="M14.7123 53.1991L1.71606 49.7168" stroke="#231F20" stroke-width="0.337778" stroke-linecap="round" stroke-linejoin="round"/>
<path d="M14.7124 56.855L0.168945 52.958" stroke="#231F20" stroke-width="0.337778" stroke-linecap="round" stroke-linejoin="round"/>
<path d="M50.5371 43.3291L57.7416 45.2595V49.1204L86.5593 41.3987V37.5378L79.3549 35.6074L50.5371 43.3291Z" stroke="#231F20" stroke-width="0.337778" stroke-linecap="round" stroke-linejoin="round"/>
<path d="M11.0988 94.5355L3.44043 92.4834V88.6226V61.5967L11.0988 63.6488V90.6747V94.5355Z" stroke="#231F20" stroke-width="0.337778" stroke-linecap="round" stroke-linejoin="round"/>
<path d="M28.9237 110.894L21.7192 108.964" stroke="#231F20" stroke-width="0.337778" stroke-linecap="round" stroke-linejoin="round"/>
<path d="M28.9237 108.964L21.7192 107.033" stroke="#231F20" stroke-width="0.337778" stroke-linecap="round" stroke-linejoin="round"/>
<path d="M28.9237 107.033L21.7192 105.103" stroke="#231F20" stroke-width="0.337778" stroke-linecap="round" stroke-linejoin="round"/>
<path d="M28.9237 105.102L21.7192 103.172" stroke="#231F20" stroke-width="0.337778" stroke-linecap="round" stroke-linejoin="round"/>
<path d="M28.9237 103.173L21.7192 101.242" stroke="#231F20" stroke-width="0.337778" stroke-linecap="round" stroke-linejoin="round"/>
<path d="M28.9237 101.242L21.7192 99.3115" stroke="#231F20" stroke-width="0.337778" stroke-linecap="round" stroke-linejoin="round"/>
<path d="M7.26953 85.7871L8.99735 86.2501" stroke="#231F20" stroke-width="0.337778" stroke-linecap="round" stroke-linejoin="round"/>
<path d="M7.26953 81.9277L8.99735 82.3907" stroke="#231F20" stroke-width="0.337778" stroke-linecap="round" stroke-linejoin="round"/>
<path d="M7.26953 78.0674L8.99735 78.5303" stroke="#231F20" stroke-width="0.337778" stroke-linecap="round" stroke-linejoin="round"/>
<path d="M7.26953 74.208L8.99735 74.671" stroke="#231F20" stroke-width="0.337778" stroke-linecap="round" stroke-linejoin="round"/>
<path d="M7.26953 70.3477L8.99735 70.8106" stroke="#231F20" stroke-width="0.337778" stroke-linecap="round" stroke-linejoin="round"/>
<path d="M8.99735 66.9509L7.26953 66.4834V85.7876L8.99735 86.2506" stroke="#231F20" stroke-width="0.337778" stroke-linecap="round" stroke-linejoin="round"/>
<path d="M57.7412 56.8555V97.698" stroke="#231F20" stroke-width="0.337778" stroke-linecap="round" stroke-linejoin="round"/>
<path d="M72.1812 53.1553V93.9979" stroke="#231F20" stroke-width="0.337778" stroke-linecap="round" stroke-linejoin="round"/>
<path d="M86.5591 49.1201V89.9626" stroke="#231F20" stroke-width="0.337778" stroke-linecap="round" stroke-linejoin="round"/>
<path d="M99.1048 80.5068L43.3936 95.4672" stroke="#231F20" stroke-width="0.337778" stroke-linecap="round" stroke-linejoin="round"/>
<path d="M99.1048 68.8867L43.3936 83.8472" stroke="#231F20" stroke-width="0.337778" stroke-linecap="round" stroke-linejoin="round"/>
<path d="M99.1048 57.2676L43.3936 72.2279" stroke="#231F20" stroke-width="0.337778" stroke-linecap="round" stroke-linejoin="round"/>
<path d="M7.26953 85.7871L8.99735 86.2501" stroke="#231F20" stroke-width="0.337778" stroke-linecap="round" stroke-linejoin="round"/>
<path d="M21.7192 95.4667V51.0508" stroke="#231F20" stroke-width="0.337778" stroke-linecap="round" stroke-linejoin="round"/>
<path d="M28.9399 97.3808V52.9648" stroke="#231F20" stroke-width="0.337778" stroke-linecap="round" stroke-linejoin="round"/>
<path d="M72.1812 89.2449C72.9941 89.2449 73.6532 88.5681 73.6532 87.7333C73.6532 86.8984 72.9941 86.2217 72.1812 86.2217C71.3682 86.2217 70.7092 86.8984 70.7092 87.7333C70.7092 88.5681 71.3682 89.2449 72.1812 89.2449Z" fill="#231F20"/>
<path d="M86.5591 73.739C87.3721 73.739 88.0311 73.0622 88.0311 72.2274C88.0311 71.3926 87.3721 70.7158 86.5591 70.7158C85.7462 70.7158 85.0872 71.3926 85.0872 72.2274C85.0872 73.0622 85.7462 73.739 86.5591 73.739Z" fill="#231F20"/>
<path d="M57.6655 91.1483C51.5341 91.1483 46.5459 86.1422 46.5459 79.9891C46.5459 73.836 51.5341 68.8301 57.6655 68.8301C63.7968 68.8301 68.7849 73.836 68.7849 79.9891C68.7849 86.1422 63.7967 91.1483 57.6655 91.1483Z" stroke="#231F20" stroke-width="0.337778" stroke-linecap="round" stroke-linejoin="round"/>
<path d="M57.6652 87.9324C53.307 87.9324 49.7615 84.369 49.7615 79.9891C49.7615 75.6092 53.307 72.0459 57.6652 72.0459C62.0233 72.0459 65.5687 75.6092 65.5687 79.9891C65.5687 84.369 62.0233 87.9324 57.6652 87.9324Z" stroke="#231F20" stroke-width="0.337778" stroke-linecap="round" stroke-linejoin="round"/>
<path d="M57.6654 84.7165C55.0805 84.7165 52.9775 82.5958 52.9775 79.989C52.9775 77.3823 55.0806 75.2617 57.6654 75.2617C60.2502 75.2617 62.3531 77.3824 62.3531 79.989C62.3531 82.5957 60.2502 84.7165 57.6654 84.7165Z" stroke="#231F20" stroke-width="0.337778" stroke-linecap="round" stroke-linejoin="round"/>
<path d="M57.6653 81.5007C58.4783 81.5007 59.1373 80.8239 59.1373 79.9891C59.1373 79.1543 58.4783 78.4775 57.6653 78.4775C56.8524 78.4775 56.1934 79.1543 56.1934 79.9891C56.1934 80.8239 56.8524 81.5007 57.6653 81.5007Z" fill="#231F20"/>
<path d="M86.5594 65.3581C83.9745 65.3581 81.8716 63.2374 81.8716 60.6306C81.8716 58.0239 83.9746 55.9033 86.5594 55.9033C89.1442 55.9033 91.2471 58.024 91.2471 60.6306C91.2471 63.2373 89.1442 65.3581 86.5594 65.3581Z" stroke="#231F20" stroke-width="0.337778" stroke-linecap="round" stroke-linejoin="round"/>
<path d="M86.5591 62.1423C87.3721 62.1423 88.0311 61.4655 88.0311 60.6307C88.0311 59.7959 87.3721 59.1191 86.5591 59.1191C85.7462 59.1191 85.0872 59.7959 85.0872 60.6307C85.0872 61.4655 85.7462 62.1423 86.5591 62.1423Z" fill="#231F20"/>
<path d="M73.6265 102.975C73.6154 102.975 73.6044 102.974 73.5936 102.971L72.1216 102.582C72.0652 102.567 72.0259 102.516 72.0259 102.457V99.3022C72.0259 99.244 72.065 99.193 72.1212 99.1779L75.0651 98.3891C75.0761 98.3863 75.0873 98.3848 75.0984 98.3848C75.1095 98.3848 75.1206 98.3862 75.1314 98.389L76.6033 98.7784C76.6597 98.7933 76.699 98.8444 76.699 98.9028V102.058C76.699 102.116 76.6599 102.167 76.6037 102.182L73.6598 102.971C73.6489 102.974 73.6377 102.975 73.6265 102.975Z" fill="#231F20"/>
<path d="M75.0987 98.5131L76.5706 98.9025V102.058L73.6267 102.847L72.1547 102.457V99.3019L75.0987 98.5131ZM75.0987 98.2559C75.0763 98.2559 75.0539 98.2588 75.032 98.2646L72.0881 99.0534C71.9757 99.0835 71.8975 99.1855 71.8975 99.3019V102.457C71.8975 102.574 71.9761 102.676 72.089 102.706L73.561 103.095C73.5826 103.101 73.6047 103.104 73.6267 103.104C73.6491 103.104 73.6715 103.101 73.6933 103.095L76.6373 102.306C76.7497 102.276 76.8279 102.174 76.8279 102.058V98.9025C76.8279 98.7857 76.7493 98.6837 76.6364 98.6539L75.1644 98.2645C75.1428 98.2588 75.1207 98.2559 75.0987 98.2559Z" fill="#231F20"/>
<path d="M73.627 102.847V99.6913L76.5709 98.9023V102.058L73.627 102.847Z" fill="#FB5A3D"/>
<path d="M73.4841 101.307L76.6496 100.459" stroke="#231F20" stroke-width="0.337778" stroke-linecap="round" stroke-linejoin="round"/>
<path d="M66.4302 104.883C66.4191 104.883 66.4081 104.881 66.3973 104.878L64.9253 104.489C64.8689 104.474 64.8296 104.423 64.8296 104.365V101.209C64.8296 101.151 64.8687 101.1 64.9249 101.085L67.869 100.296C67.8799 100.294 67.8911 100.292 67.9023 100.292C67.9133 100.292 67.9244 100.293 67.9352 100.296L69.407 100.685C69.4634 100.7 69.5028 100.751 69.5028 100.81V103.965C69.5028 104.023 69.4637 104.074 69.4074 104.089L66.4635 104.878C66.4526 104.881 66.4414 104.883 66.4302 104.883Z" fill="#231F20"/>
<path d="M67.9024 100.42L69.3743 100.81V103.965L66.4304 104.754L64.9584 104.364V101.209L67.9024 100.42ZM67.9024 100.163C67.88 100.163 67.8576 100.166 67.8357 100.172L64.8918 100.961C64.7794 100.991 64.7012 101.093 64.7012 101.209V104.364C64.7012 104.481 64.7798 104.583 64.8927 104.613L66.3647 105.002C66.3863 105.008 66.4084 105.011 66.4304 105.011C66.4528 105.011 66.4752 105.008 66.497 105.002L69.441 104.214C69.5534 104.183 69.6316 104.081 69.6316 103.965V100.81C69.6316 100.693 69.553 100.591 69.4401 100.561L67.9681 100.172C67.9465 100.166 67.9244 100.163 67.9024 100.163Z" fill="#231F20"/>
<path d="M66.4302 104.753V101.597L69.3741 100.809V103.964L66.4302 104.753Z" fill="#FB5A3D"/>
<path d="M66.2874 103.213L69.4528 102.365" stroke="#231F20" stroke-width="0.337778" stroke-linecap="round" stroke-linejoin="round"/>
<path d="M59.2323 106.787C59.2212 106.787 59.2102 106.786 59.1994 106.783L57.7275 106.393C57.6712 106.378 57.6318 106.327 57.6318 106.269V103.114C57.6318 103.056 57.6709 103.005 57.7272 102.99L60.6711 102.201C60.682 102.198 60.6932 102.196 60.7044 102.196C60.7155 102.196 60.7265 102.198 60.7373 102.201L62.2092 102.59C62.2655 102.605 62.3049 102.656 62.3049 102.714V105.87C62.3049 105.928 62.2658 105.979 62.2096 105.994L59.2656 106.783C59.2547 106.785 59.2435 106.787 59.2323 106.787Z" fill="#231F20"/>
<path d="M60.7041 102.325L62.1761 102.714V105.869L59.2322 106.658L57.7602 106.269V103.113L60.7041 102.325ZM60.7041 102.067C60.6818 102.067 60.6594 102.07 60.6375 102.076L57.6936 102.865C57.5811 102.895 57.5029 102.997 57.5029 103.113V106.269C57.5029 106.386 57.5815 106.488 57.6945 106.517L59.1664 106.907C59.188 106.912 59.2102 106.915 59.2322 106.915C59.2545 106.915 59.2769 106.912 59.2988 106.907L62.2427 106.118C62.3552 106.088 62.4334 105.986 62.4334 105.869V102.714C62.4334 102.597 62.3548 102.495 62.2418 102.465L60.7699 102.076C60.7483 102.07 60.7261 102.067 60.7041 102.067Z" fill="#231F20"/>
<path d="M59.2324 106.659V103.504L62.1764 102.715V105.87L59.2324 106.659Z" fill="#FB5A3D"/>
<path d="M59.0891 105.12L62.2546 104.271" stroke="#231F20" stroke-width="0.337778" stroke-linecap="round" stroke-linejoin="round"/>
<path d="M86.5591 97.4545L100.966 93.5947" stroke="#231F20" stroke-width="0.337778" stroke-linecap="round" stroke-linejoin="round"/>
<path d="M92.3176 96.7129V93.627L93.7573 93.2412L95.1967 93.6436V96.7295L93.7572 97.1153L92.3176 96.7129Z" fill="#231F20" stroke="#231F20" stroke-width="0.337778" stroke-linecap="round" stroke-linejoin="round"/>
<path d="M95.1969 93.6436L93.7573 94.0293V97.1153L95.1969 96.7295V93.6436Z" fill="#FB5A3D"/>
<path d="M50.5369 108.893C51.3499 108.893 52.0089 108.217 52.0089 107.382C52.0089 106.547 51.3499 105.87 50.5369 105.87C49.724 105.87 49.0649 106.547 49.0649 107.382C49.0649 108.217 49.724 108.893 50.5369 108.893Z" stroke="#231F20" stroke-width="0.337778" stroke-linecap="round" stroke-linejoin="round"/>
<path d="M79.3549 36.2401L51.8182 43.6403L50.5369 43.3303L79.3549 35.6084V36.2401Z" fill="#B2FF14" stroke="#231F20" stroke-width="0.337778" stroke-linecap="round" stroke-linejoin="round"/>
<path d="M86.577 38.2217L57.7354 45.9499" stroke="#231F20" stroke-width="0.337778" stroke-linecap="round" stroke-linejoin="round"/>
<path d="M33.5882 41.9581C33.5882 41.9581 33.5882 41.9579 33.5882 41.9577H33.5879V42.7368C33.4375 42.8031 33.2935 42.8736 33.1587 42.949C32.2684 43.4467 31.9161 44.041 32.0671 44.5945L32.0583 44.5949V45.1645C32.1884 45.7059 32.7993 46.2108 33.861 46.5518C35.9921 47.2361 39.133 47.0009 40.8762 46.0262C41.5509 45.649 41.9174 45.2163 41.9894 44.788V44.1835C42.0883 43.5743 41.5931 42.9742 40.5419 42.5554V41.8819C40.6597 41.3911 40.226 40.9026 39.2817 40.5994C37.7903 40.1205 35.5924 40.2851 34.3725 40.9671C33.8349 41.2676 33.5806 41.6184 33.5879 41.9577" fill="#FB5A3D"/>
<path d="M34.5791 42.9824V45.0304L34.8571 45.1588V43.068L34.5791 42.9824Z" fill="#AA00FF"/>
<path d="M34.1297 42.7304V44.7944L33.8216 44.5363L33.627 44.1634L33.6484 42.2812L34.1297 42.7304Z" fill="#1B1A1A"/>
<path d="M34.0178 42.709V44.757L34.2958 44.8854V42.7947L34.0178 42.709Z" fill="#AA00FF"/>
<path d="M32.7822 45.4766V46.1075L33.0602 46.1632V45.6422L32.7822 45.4766Z" fill="#AA00FF"/>
<path d="M32.2209 45.1006V45.4744L32.4991 45.7874V45.1378L32.2209 45.1006Z" fill="#AA00FF"/>
<path d="M34.8929 45.1586C36.3843 45.6375 38.5821 45.4728 39.8021 44.7908M39.8021 44.7908C40.4162 44.4475 40.5982 43.9893 40.5708 43.6559V42.5557C42.3642 43.2702 42.5424 44.5123 40.905 45.4277C39.1618 46.4024 36.0209 46.6376 33.8898 45.9533C31.7587 45.269 31.4442 43.924 33.1875 42.9493C33.3223 42.8739 33.4662 42.8035 33.6167 42.737V43.8774C33.5726 44.3389 33.9496 44.8555 34.8929 45.1585C36.3843 45.6374 38.5821 45.4728 39.8021 44.7908Z" stroke="#231F20" stroke-width="0.337778" stroke-miterlimit="10"/>
<path d="M32.0869 44.5953V45.1649C32.217 45.7063 32.8279 46.2112 33.8896 46.5522C36.0207 47.2365 39.1616 47.0013 40.9048 46.0266C41.5795 45.6493 41.9459 45.2167 42.018 44.7884V44.082" stroke="#231F20" stroke-width="0.337778" stroke-miterlimit="10"/>
<path d="M40.5708 41.8231V41.8819C40.6886 41.3911 40.2548 40.9026 39.3105 40.5994C37.8191 40.1205 35.6213 40.2851 34.4013 40.9671C33.8375 41.2824 33.5819 41.653 33.6166 42.0077V41.9577" stroke="#231F20" stroke-width="0.337778" stroke-miterlimit="10"/>
<path d="M33.9675 42.5946C33.755 42.4135 33.6369 42.2134 33.6167 42.0078V42.7369" stroke="#231F20" stroke-width="0.337778" stroke-miterlimit="10"/>
<path d="M40.5707 42.5559V41.9777C40.5707 41.9616 40.5487 41.957 40.543 41.972C40.485 42.1256 40.3727 42.2783 40.2043 42.4246" stroke="#231F20" stroke-width="0.337778" stroke-miterlimit="10"/>
<path d="M40.2024 42.4236C40.2024 42.4236 40.2036 42.424 40.2042 42.4242C40.4053 42.2495 40.5264 42.0657 40.5705 41.882V41.8232" stroke="#231F20" stroke-width="0.337778" stroke-miterlimit="10"/>
<path d="M33.6167 41.958V42.0079C33.6368 42.2136 33.755 42.4138 33.9675 42.5947" stroke="#231F20" stroke-width="0.337778" stroke-miterlimit="10"/>
<path d="M34.5922 42.9593C34.3331 42.852 34.1243 42.7286 33.9673 42.5947" stroke="#231F20" stroke-width="0.337778" stroke-miterlimit="10"/>
<path d="M39.6108 42.7989C39.6762 42.7675 39.7411 42.7359 39.8019 42.7019C39.9603 42.6133 40.094 42.5203 40.2042 42.4245C40.2036 42.4242 40.2031 42.4241 40.2024 42.4238" stroke="#231F20" stroke-width="0.337778" stroke-miterlimit="10"/>
<path d="M39.6107 42.7988C38.363 43.3978 36.3097 43.5247 34.8925 43.0696C34.7855 43.0353 34.6858 42.9982 34.592 42.9594" stroke="#231F20" stroke-width="0.337778" stroke-miterlimit="10"/>
<path d="M32.0337 44.2812L32.0584 45.1646L32.3225 45.618L32.3118 45.0833L32.0671 44.5945L32.0337 44.2812Z" fill="#1B1A1A"/>
<path d="M65.0615 0.682617L59.9558 9.61765L59.11 6.58181L54.7288 10.8251L58.8863 1.20009L60.628 4.21921L65.0615 0.682617Z" fill="#B2FF14"/>
<path d="M58.8863 1.20009L54.7288 10.8251L59.11 6.58181L59.9558 9.61765L65.0615 0.682617L60.628 4.21921L58.8863 1.20009Z" stroke="black" stroke-width="0.337778" stroke-miterlimit="10"/>
<path d="M73.145 21.7576L62.958 20.2994L65.4693 18.3955L59.9112 15.8838L70.3908 16.2065L68.2248 18.9372L73.145 21.7576Z" fill="#B2FF14"/>
<path d="M70.3908 16.2065L59.9112 15.8838L65.4693 18.3955L62.958 20.2994L73.145 21.7576L68.2248 18.9372L70.3908 16.2065Z" stroke="black" stroke-width="0.337778" stroke-miterlimit="10"/>
</svg>
